<?xml version="1.0" encoding="utf-8"?>
<svg version="1.1" xmlns:xlink="http://www.w3.org/1999/xlink" width="18px" height="21px" xmlns="http://www.w3.org/2000/svg">
  <g transform="matrix(1 0 0 1 -1204 -10 )">
    <path d="M 16.165964673913 12.063911637931  L 16.165964673913 9.56317483836207  C 16.165964673913 6.03402074353448  13.8769870923913 3.06946794181034  10.7809952445652 2.2340786637931  L 10.7809952445652 2.19184671336207  C 10.7809952445652 1.0052505387931  9.97884680706522 0.0433634159482751  8.98935122282609 0.0433634159482751  C 7.99993206521739 0.0433634159482751  7.19770720108696 1.00522225215517  7.19770720108696 2.19184671336207  L 7.19770720108696 2.24086745689655  C 4.11450407608696 3.08539331896552  1.8378566576087 6.04338362068965  1.8378566576087 9.56303340517241  L 1.8378566576087 11.6209146012931  L 1.83635360054348 11.6209146012931  C 1.87336956521739 14.1609981142241  0.0405061141304357 14.6591823814655  0.0405061141304357 16.0302922952586  C 0.0405061141304357 17.4014022090517  1.04149116847826 17.9364156788793  2.27641813858696 17.9364156788793  L 5.40366847826087 17.9364156788793  C 5.44733355978261 19.5881573275862  7.0400390625 20.9159886853448  8.99849694293478 20.9159886853448  C 10.9569548233696 20.9159886853448  12.549660326087 19.5882704741379  12.5933254076087 17.9364156788793  L 15.7125 17.9364156788793  C 16.9474269701087 17.9364156788793  17.9485139266304 17.4015153556034  17.9485139266304 16.0302922952586  C 17.9486413043478 14.7431654094828  16.3267153532609 14.2195231681034  16.166015625 12.063939924569  Z M 9.00078974184783 19.9124919181034  C 7.51329823369565 19.9124919181034  6.30746433423913 19.0434415409483  6.30746433423913 17.9713213900862  C 6.30746433423913 17.9596390086207  6.30771908967391 17.9479849137931  6.30812669836956 17.9362742456897  L 11.6935292119565 17.9362742456897  C 11.6937839673913 17.9479566271552  11.694191576087 17.959525862069  11.694191576087 17.9713213900862  C 11.6940641983696 19.0434132543103  10.48828125 19.9124919181034  9.00073879076087 19.9124919181034  Z M 17.0567680027174 16.1074582435345  C 17.0007982336957 16.7512904094828  16.2351817255435 16.956283674569  15.753464673913 17  L 2.23947860054348 17  C 1.8705417798913 17.0120083512931  0.922265624999999 16.8118238146552  0.936251698369564 16.1214601293103  L 0.936251698369564 15.9461395474138  C 0.948556385869564 15.3227869073276  2.32785326086956 14.7914224137931  2.72409986413043 12.5838200431034  L 2.72409986413043 11.6209994612069  L 2.70990998641304 11.6209994612069  L 2.70990998641304 9.73498787715517  C 2.70990998641304 6.347578125  5.04647588315217 3.54530576508621  8.08685461956522 3.07693561422414  L 8.08685461956522 2.23885910560345  C 8.08685461956522 1.57681034482759  8.48873131793478 1.04012796336207  8.98448539402174 1.04012796336207  C 9.4802394701087 1.04012796336207  9.88211616847826 1.57681034482759  9.88211616847826 2.23885910560345  L 9.88211616847826 3.0758041487069  C 12.9258576766304 3.54097790948276  15.2661175271739 6.34486260775862  15.2661175271739 9.73501616379311  L 15.2661175271739 11.6209994612069  L 15.2608950407609 11.6209994612069  L 15.2608950407609 12.4892295258621  L 15.2678498641304 12.4892295258621  C 15.285988451087 14.0751481681034  17.0426800271739 15.3931923491379  17.0566661005435 15.8701050646552  L 17.0567934782609 16.1074582435345  Z " fill-rule="nonzero" fill="#666666" stroke="none" transform="matrix(1 0 0 1 1204 10 )" />
  </g>
</svg>